<svg preserveAspectRatio="xMidYMid meet" width="200" height="52" overflow="visible" viewBox="0 0 200 52.0004" fill="none" xmlns="http://www.w3.org/2000/svg">
<path id="Vector" d="M59.9464 0.0621845C113.424 12.7274 72.566 33.0497 62.9453 35.0842C77.3 33.6769 89.1885 27.7522 91.6546 19.9164C97.0157 2.87668 57.4478 -0.529316 59.9464 0.0621845ZM68.1537 8.50569C66.5909 8.23269 57.2659 13.8227 53.4774 21.0117C53.4774 21.0117 78.4014 23.5142 80.77 15.6979C81.2444 14.1347 75.2465 9.75369 68.1537 8.50569ZM28.2414 31.9577C37.391 30.0824 44.9614 29.9232 44.9614 29.9232C44.9614 29.9232 46.4105 17.2124 64.3652 7.72244C66.7306 6.47119 53.3214 5.37593 46.6997 7.25118C44.3441 7.91743 29.8172 17.7259 28.2414 31.9544V31.9577ZM188.946 48.1622L188.046 51.5844C188.628 51.7209 189.2 51.8217 189.749 51.8932C190.305 51.9647 190.844 52.0004 191.37 52.0004C193.138 52.0004 194.574 51.7112 195.669 51.1294C196.767 50.5477 197.511 49.6897 197.901 48.5457C198.093 47.9932 198.119 47.5057 197.989 47.0799C197.856 46.6574 197.475 46.1602 196.842 45.5882C196.757 45.5134 196.637 45.4094 196.484 45.2729C195.864 44.7204 195.591 44.3207 195.675 44.0769C195.731 43.9209 195.861 43.7942 196.065 43.6999C196.27 43.6024 196.52 43.5569 196.816 43.5569C197.134 43.5569 197.475 43.5894 197.843 43.6609C198.213 43.7292 198.671 43.8429 199.214 44.0119L200 40.8887C199.366 40.7522 198.752 40.6514 198.164 40.5864C197.579 40.5214 197.021 40.4889 196.481 40.4889C195.055 40.4889 193.797 40.7847 192.702 41.3729C191.608 41.9612 190.902 42.7184 190.587 43.6447C190.409 44.1614 190.392 44.6424 190.539 45.0844C190.678 45.5297 191.032 46.0497 191.582 46.6412C191.711 46.7777 191.884 46.9629 192.105 47.1774C192.65 47.7429 192.884 48.1427 192.803 48.3767C192.748 48.5392 192.621 48.6627 192.423 48.7439C192.225 48.8252 191.962 48.8642 191.627 48.8642C191.292 48.8642 190.919 48.8057 190.464 48.6887C190.015 48.5749 189.505 48.3994 188.94 48.1622H188.946ZM189.275 43.8559L190.288 40.8042C189.765 40.6839 189.242 40.5962 188.709 40.5377C188.176 40.4792 187.627 40.4499 187.072 40.4499C184.885 40.4499 183.001 40.9764 181.431 42.0262C179.862 43.0759 178.754 44.5514 178.101 46.4527C177.487 48.2564 177.581 49.6279 178.39 50.5672C179.193 51.5064 180.681 51.9777 182.841 51.9777C183.364 51.9777 183.894 51.9484 184.43 51.8964C184.97 51.8412 185.532 51.7567 186.12 51.6397L187.728 48.2857C187.28 48.4417 186.799 48.5652 186.292 48.6464C185.779 48.7309 185.275 48.7732 184.768 48.7732C183.771 48.7732 183.095 48.5717 182.744 48.1687C182.393 47.7657 182.351 47.1644 182.63 46.3552C182.942 45.4387 183.478 44.7334 184.232 44.2394C184.996 43.7454 185.915 43.5017 187.003 43.5017C187.38 43.5017 187.764 43.5309 188.147 43.5894C188.534 43.6479 188.911 43.7357 189.275 43.8494V43.8559ZM169.747 51.7339H174.273C175.17 49.2672 175.989 47.1027 176.72 45.2404C177.454 43.3782 178.088 41.8572 178.624 40.6872H174.101C173.305 42.9102 172.538 44.9642 171.791 46.8589C171.044 48.7504 170.361 50.3787 169.744 51.7339H169.747ZM155.61 51.7339H159.701C160.007 50.8369 160.426 49.7319 160.949 48.4189L160.991 48.2954L161.894 46.0627L162.33 48.7277C162.336 48.7927 162.352 48.9064 162.385 49.0689C162.57 49.9984 162.681 50.8857 162.713 51.7339H167.791C167.827 51.6072 167.869 51.4772 167.915 51.3374C167.957 51.1977 168.025 50.9962 168.116 50.7297C168.396 49.9269 168.747 48.9747 169.185 47.8794C169.28 47.6454 169.345 47.4862 169.371 47.3984L170.898 43.4887C171.041 43.1084 171.206 42.7119 171.385 42.2992C171.564 41.8864 171.811 41.3469 172.126 40.6839H168.256C168.048 41.2819 167.873 41.7954 167.713 42.2309C167.554 42.6664 167.428 43.0109 167.324 43.2677L166.034 46.3389L165.111 40.6839H160.049C159.971 40.8822 159.854 41.1844 159.701 41.5809C157.794 46.5729 156.426 49.9529 155.607 51.7307L155.61 51.7339ZM147.215 51.9679C149.398 51.9679 151.299 51.4317 152.91 50.3592C154.522 49.2899 155.649 47.8274 156.283 45.9684C156.881 44.2134 156.748 42.8549 155.874 41.8929C155.006 40.9309 153.469 40.4499 151.266 40.4499C149.063 40.4499 147.28 40.9829 145.688 42.0489C144.099 43.1182 142.984 44.5742 142.354 46.4234C141.759 48.1654 141.886 49.5272 142.737 50.5022C143.589 51.4772 145.083 51.9647 147.211 51.9647L147.215 51.9679ZM146.825 46.3974C147.159 45.4744 147.618 44.7692 148.202 44.2784C148.787 43.7877 149.463 43.5439 150.23 43.5439C150.997 43.5439 151.517 43.7649 151.78 44.2004C152.04 44.6392 152.03 45.2729 151.75 46.0984C151.448 46.9792 151.003 47.6617 150.415 48.1492C149.827 48.6367 149.154 48.8804 148.404 48.8804C147.653 48.8804 147.098 48.6659 146.825 48.2369C146.555 47.8112 146.558 47.1937 146.825 46.3974ZM128.331 51.7339H132.607C132.87 50.9572 133.12 50.2454 133.351 49.5987C133.578 48.9519 133.76 48.4612 133.89 48.1232L135.625 43.6447C135.836 43.6154 136.021 43.5862 136.184 43.5667C136.346 43.5472 136.476 43.5407 136.584 43.5407C137.116 43.5407 137.467 43.6122 137.64 43.7552C137.812 43.8982 137.844 44.1322 137.734 44.4572C137.627 44.7659 137.428 44.9999 137.136 45.1559C136.85 45.3152 136.47 45.3899 135.995 45.3899C135.921 45.3899 135.807 45.3834 135.654 45.3672C135.508 45.3509 135.404 45.3412 135.352 45.3412L135.115 45.5557C134.991 46.7452 134.878 47.8469 134.754 48.8544C134.631 49.8652 134.511 50.8239 134.387 51.7339H138.894C138.897 50.7849 138.91 49.9042 138.923 49.0917C138.939 48.2824 138.965 47.5447 138.991 46.8752C139.797 46.5762 140.47 46.1667 141.009 45.6467C141.545 45.1267 141.938 44.5059 142.185 43.7909C142.373 43.2319 142.442 42.7314 142.383 42.2829C142.322 41.8377 142.14 41.4867 141.837 41.2234C141.616 41.0284 141.318 40.8919 140.95 40.8074C140.583 40.7262 139.943 40.6839 139.033 40.6839H132.672C131.882 42.9004 131.115 44.9512 130.371 46.8394C129.627 48.7244 128.942 50.3559 128.321 51.7307L128.331 51.7339ZM119.581 51.7339H124.016C124.695 49.8522 125.309 48.1979 125.858 46.7712C126.401 45.3412 126.807 44.3304 127.073 43.7389C127.168 43.7357 127.272 43.7292 127.385 43.7292C127.505 43.7292 127.665 43.7259 127.866 43.7259H128.542C128.922 43.7259 129.244 43.7292 129.497 43.7357C129.751 43.7454 130.004 43.7552 130.248 43.7714L131.411 40.6872H120.734L119.597 43.7714C120.097 43.7552 120.491 43.7422 120.773 43.7357C121.056 43.7292 121.248 43.7259 121.339 43.7259C121.517 43.7259 121.761 43.7259 122.086 43.7324C122.404 43.7389 122.638 43.7389 122.788 43.7389L122.674 44.0769C122.304 45.1494 121.862 46.3292 121.345 47.6129C120.829 48.8934 120.237 50.2682 119.578 51.7339H119.581ZM118.632 43.8559L119.646 40.8042C119.129 40.6839 118.6 40.5962 118.067 40.5377C117.534 40.4792 116.991 40.4499 116.429 40.4499C114.239 40.4499 112.361 40.9764 110.789 42.0262C109.216 43.0759 108.108 44.5514 107.462 46.4527C106.841 48.2564 106.935 49.6279 107.748 50.5672C108.553 51.5064 110.038 51.9777 112.199 51.9777C112.719 51.9777 113.248 51.9484 113.791 51.8964C114.327 51.8412 114.889 51.7567 115.477 51.6397L117.086 48.2857C116.637 48.4417 116.16 48.5652 115.646 48.6464C115.136 48.7309 114.629 48.7732 114.126 48.7732C113.128 48.7732 112.456 48.5717 112.101 48.1687C111.75 47.7657 111.715 47.1644 111.988 46.3552C112.303 45.4387 112.839 44.7334 113.596 44.2394C114.353 43.7454 115.276 43.5017 116.367 43.5017C116.748 43.5017 117.125 43.5309 117.508 43.5894C117.895 43.6479 118.268 43.7357 118.635 43.8494L118.632 43.8559ZM94.3059 51.7339H104.031L105.161 48.7829C104.69 48.8219 104.213 48.8512 103.732 48.8707C103.251 48.8902 102.705 48.8999 102.088 48.8999H99.7287L100.275 47.5642H102.542C103.053 47.5642 103.475 47.5642 103.806 47.5772C104.138 47.5869 104.463 47.5967 104.778 47.6162L105.886 44.7334H105.788C104.472 44.7887 103.68 44.8114 103.42 44.8114H101.35L101.886 43.4789H104.615C105.022 43.4789 105.441 43.4919 105.873 43.5082C106.311 43.5309 106.763 43.5667 107.231 43.6154L108.365 40.6904H98.6532C97.8735 42.8744 97.1164 44.8992 96.3756 46.7712C95.6381 48.6399 94.946 50.2974 94.2994 51.7372L94.3059 51.7339ZM84.1946 51.7339H93.2564L94.5009 48.5814C93.877 48.6074 93.3084 48.6269 92.7886 48.6399C92.272 48.6529 91.7846 48.6594 91.3232 48.6594C90.9366 48.6594 90.6409 48.6594 90.4459 48.6594C90.2542 48.6594 90.0756 48.6529 89.9131 48.6464C90.6214 46.6802 91.255 45.0129 91.8106 43.6447C92.3629 42.2732 92.7983 41.2917 93.12 40.6872H88.5225C87.7167 42.9427 86.9499 44.9999 86.2221 46.8622C85.491 48.7244 84.8152 50.3494 84.1946 51.7339ZM72.748 51.7339H82.4726L83.6033 48.7829C83.1322 48.8219 82.6545 48.8512 82.1737 48.8707C81.6928 48.8902 81.1437 48.8999 80.5329 48.8999H78.174L78.7198 47.5642H80.991C81.5011 47.5642 81.9202 47.5642 82.2516 47.5772C82.5831 47.5869 82.908 47.5967 83.2264 47.6162L84.3343 44.7334H84.2336C82.9177 44.7887 82.1249 44.8114 81.8618 44.8114H79.7888L80.3282 43.4789H83.0574C83.4636 43.4789 83.8827 43.4919 84.3181 43.5082C84.7535 43.5309 85.2051 43.5667 85.6762 43.6154L86.8102 40.6904H77.0985C76.3187 42.8744 75.5617 44.8992 74.8209 46.7712C74.0833 48.6399 73.388 50.2974 72.7447 51.7372L72.748 51.7339ZM54.6471 51.7339H58.9262C59.1926 50.9572 59.4395 50.2454 59.667 49.5987C59.8977 48.9519 60.0764 48.4612 60.2096 48.1232L61.9479 43.6447C62.1558 43.6154 62.341 43.5862 62.5067 43.5667C62.6659 43.5472 62.8024 43.5407 62.9063 43.5407C63.4392 43.5407 63.7934 43.6122 63.9656 43.7552C64.141 43.8982 64.1703 44.1322 64.0598 44.4572C63.9558 44.7659 63.7576 44.9999 63.4684 45.1559C63.1793 45.3152 62.7991 45.3899 62.328 45.3899C62.2533 45.3899 62.1363 45.3834 61.9868 45.3672C61.8374 45.3509 61.7367 45.3412 61.6879 45.3412L61.4507 45.5557C61.3305 46.7452 61.2071 47.8469 61.0868 48.8544C60.9666 49.8652 60.8432 50.8239 60.7197 51.7339H65.2295C65.2295 50.7849 65.2425 49.9042 65.2587 49.0917C65.275 48.2824 65.2977 47.5447 65.3237 46.8752C66.1327 46.5762 66.8086 46.1667 67.3447 45.6467C67.8808 45.1267 68.2739 44.5059 68.5176 43.7909C68.7093 43.2319 68.7743 42.7314 68.7158 42.2829C68.6573 41.8377 68.4786 41.4867 68.1699 41.2234C67.9457 41.0284 67.6501 40.8919 67.2862 40.8074C66.919 40.7262 66.2789 40.6839 65.3692 40.6839H59.0106C58.2211 42.9004 57.4543 44.9512 56.7103 46.8394C55.9662 48.7244 55.2806 50.3559 54.6568 51.7307L54.6471 51.7339ZM43.2491 51.7339H52.9738L54.1077 48.7829C53.6333 48.8219 53.1557 48.8512 52.6781 48.8707C52.1972 48.8902 51.6481 48.8999 51.0373 48.8999H48.6784L49.2243 47.5642H51.4954C52.0055 47.5642 52.4247 47.5642 52.7593 47.5772C53.0907 47.5869 53.4156 47.5967 53.7341 47.6162L54.8453 44.7334H54.7445C53.4254 44.7887 52.6359 44.8114 52.3727 44.8114H50.2997L50.8391 43.4789H53.5684C53.9745 43.4789 54.3936 43.4919 54.8258 43.5082C55.2579 43.5309 55.7128 43.5667 56.1839 43.6154L57.3146 40.6904H47.6062C46.8264 42.8744 46.0661 44.8992 45.3286 46.7712C44.5878 48.6399 43.899 50.2974 43.2524 51.7372L43.2491 51.7339ZM34.9833 51.7339H39.6588L46.6672 40.6872H43.0672L39.152 47.2132L40.3217 40.6872H36.0978L32.3061 46.9922L33.5927 40.6872H29.8855L27.9815 51.7339H32.3873L36.1855 45.4614L34.9833 51.7339ZM18.0651 51.9679C20.2518 51.9679 22.1493 51.4317 23.7609 50.3592C25.3757 49.2899 26.4966 47.8274 27.1335 45.9684C27.7345 44.2134 27.5981 42.8549 26.7273 41.8929C25.8566 40.9309 24.3197 40.4499 22.1201 40.4499C19.9204 40.4499 18.1366 40.9829 16.5446 42.0489C14.9525 43.1182 13.8413 44.5742 13.211 46.4234C12.6131 48.1654 12.7398 49.5272 13.5943 50.5022C14.4489 51.4772 15.937 51.9647 18.0684 51.9647L18.0651 51.9679ZM17.6785 46.3974C18.0099 45.4744 18.468 44.7692 19.0529 44.2784C19.6377 43.7877 20.3135 43.5439 21.0803 43.5439C21.8471 43.5439 22.3702 43.7649 22.6302 44.2004C22.8901 44.6392 22.8804 45.2729 22.5977 46.0984C22.2988 46.9792 21.8536 47.6617 21.2623 48.1492C20.6742 48.6367 20.0016 48.8804 19.2543 48.8804C18.507 48.8804 17.9449 48.6659 17.6753 48.2369C17.4056 47.8112 17.4056 47.1937 17.6817 46.3974H17.6785ZM0 51.7339C0.623832 50.3592 1.3094 48.7277 2.05345 46.8427C2.7975 44.9544 3.56754 42.9004 4.35708 40.6872H10.082C10.9658 40.6872 11.5766 40.7262 11.921 40.8009C12.2655 40.8757 12.5514 41.0024 12.7756 41.1779C13.0907 41.4217 13.2824 41.7792 13.3442 42.2504C13.4091 42.7217 13.3377 43.2514 13.1362 43.8429C12.7008 45.1137 11.986 46.1244 10.9853 46.8719C9.98457 47.6227 8.86362 47.9964 7.6127 47.9964C7.43075 47.9964 7.25205 47.9899 7.0766 47.9769C6.90115 47.9607 6.72244 47.9444 6.54699 47.9152L6.83941 45.2729L7.0701 45.1267H7.53148C7.84339 45.1267 8.10982 45.0519 8.33076 44.8992C8.5517 44.7464 8.70766 44.5287 8.80513 44.2394C8.89936 43.9632 8.88961 43.7584 8.76614 43.6317C8.64593 43.5017 8.40224 43.4367 8.03184 43.4367C7.95711 43.4367 7.85314 43.4464 7.72967 43.4594C7.60296 43.4724 7.46 43.4919 7.29104 43.5212L5.55926 48.1264C5.44879 48.4092 5.27333 48.8772 5.0394 49.5402C4.80546 50.1999 4.55203 50.9312 4.27585 51.7339H0Z" fill="var(--fill-0, black)"/>
</svg>
